<svg width="60" height="60" viewBox="0 0 60 60" fill="none" xmlns="http://www.w3.org/2000/svg">
<path d="M52.5 45V47.5C52.5 50.25 50.25 52.5 47.5 52.5H12.5C9.725 52.5 7.5 50.25 7.5 47.5V12.5C7.5 9.75 9.725 7.5 12.5 7.5H47.5C50.25 7.5 52.5 9.75 52.5 12.5V15H30C27.225 15 25 17.25 25 20V40C25 42.75 27.225 45 30 45H52.5ZM30 40H55V20H30V40ZM40 33.75C37.925 33.75 36.25 32.075 36.25 30C36.25 27.925 37.925 26.25 40 26.25C42.075 26.25 43.75 27.925 43.75 30C43.75 32.075 42.075 33.75 40 33.75Z" fill="#D90429"/>
</svg>
