<svg width="386" height="690" viewBox="0 0 386 690" fill="none" xmlns="http://www.w3.org/2000/svg">
<path d="M36.3428 91H34.2578V81.0059H39.9863V82.7422H36.3428V85.3193H39.7334V87.0488H36.3428V91ZM47.1914 91L46.9111 90.0225H46.8018C46.5785 90.3779 46.2617 90.6536 45.8516 90.8496C45.4414 91.041 44.9743 91.1367 44.4502 91.1367C43.5524 91.1367 42.8757 90.8975 42.4199 90.4189C41.9642 89.9359 41.7363 89.2432 41.7363 88.3408V83.3574H43.8213V87.8213C43.8213 88.3727 43.9193 88.7874 44.1152 89.0654C44.3112 89.3389 44.6234 89.4756 45.0518 89.4756C45.6351 89.4756 46.0566 89.2819 46.3164 88.8945C46.5762 88.5026 46.7061 87.8555 46.7061 86.9531V83.3574H48.791V91H47.1914ZM53.0635 91H50.9785V80.3633H53.0635V91ZM57.3428 91H55.2578V80.3633H57.3428V91ZM72.2041 91H69.5107L65.1631 83.4395H65.1016C65.1882 84.7747 65.2314 85.7272 65.2314 86.2969V91H63.3379V81.0059H66.0107L70.3516 88.4912H70.3994C70.3311 87.1924 70.2969 86.2741 70.2969 85.7363V81.0059H72.2041V91ZM79.416 91L79.0127 89.9609H78.958C78.6071 90.403 78.2448 90.7106 77.8711 90.8838C77.502 91.0524 77.0189 91.1367 76.4219 91.1367C75.6882 91.1367 75.1094 90.9271 74.6855 90.5078C74.2663 90.0885 74.0566 89.4915 74.0566 88.7168C74.0566 87.9056 74.3392 87.3086 74.9043 86.9258C75.474 86.5384 76.3307 86.3242 77.4746 86.2832L78.8008 86.2422V85.9072C78.8008 85.1325 78.4043 84.7451 77.6113 84.7451C77.0007 84.7451 76.2829 84.9297 75.458 85.2988L74.7676 83.8906C75.6471 83.4303 76.6224 83.2002 77.6934 83.2002C78.7188 83.2002 79.5049 83.4235 80.0518 83.8701C80.5986 84.3167 80.8721 84.9958 80.8721 85.9072V91H79.416ZM78.8008 87.459L77.9941 87.4863C77.388 87.5046 76.9368 87.6139 76.6406 87.8145C76.3444 88.015 76.1963 88.3203 76.1963 88.7305C76.1963 89.3184 76.5335 89.6123 77.208 89.6123C77.6911 89.6123 78.0762 89.4733 78.3633 89.1953C78.6549 88.9173 78.8008 88.5482 78.8008 88.0879V87.459ZM89.8682 91H87.7832V86.5361C87.7832 85.9847 87.6898 85.5723 87.5029 85.2988C87.3206 85.0208 87.0312 84.8818 86.6348 84.8818C86.1016 84.8818 85.7142 85.0778 85.4727 85.4697C85.2311 85.8617 85.1104 86.5065 85.1104 87.4043V91H83.0254V83.3574H84.6182L84.8984 84.335H85.0146C85.2197 83.984 85.516 83.7106 85.9033 83.5146C86.2907 83.3141 86.735 83.2139 87.2363 83.2139C88.3802 83.2139 89.1549 83.5876 89.5605 84.335H89.7451C89.9502 83.9795 90.251 83.7038 90.6475 83.5078C91.0485 83.3118 91.4997 83.2139 92.001 83.2139C92.8669 83.2139 93.5208 83.4372 93.9629 83.8838C94.4095 84.3258 94.6328 85.0368 94.6328 86.0166V91H92.541V86.5361C92.541 85.9847 92.4476 85.5723 92.2607 85.2988C92.0785 85.0208 91.7891 84.8818 91.3926 84.8818C90.8822 84.8818 90.4993 85.0641 90.2441 85.4287C89.9935 85.7933 89.8682 86.3721 89.8682 87.165V91ZM99.9443 84.6973C99.5023 84.6973 99.1559 84.8385 98.9053 85.1211C98.6546 85.3991 98.5111 85.7956 98.4746 86.3105H101.4C101.391 85.7956 101.257 85.3991 100.997 85.1211C100.737 84.8385 100.386 84.6973 99.9443 84.6973ZM100.238 91.1367C99.0078 91.1367 98.0462 90.7972 97.3535 90.1182C96.6608 89.4391 96.3145 88.4775 96.3145 87.2334C96.3145 85.9528 96.6335 84.9639 97.2715 84.2666C97.9141 83.5648 98.8005 83.2139 99.9307 83.2139C101.011 83.2139 101.852 83.5215 102.453 84.1367C103.055 84.752 103.355 85.6019 103.355 86.6865V87.6982H98.4268C98.4495 88.2907 98.625 88.7533 98.9531 89.0859C99.2812 89.4186 99.7415 89.585 100.334 89.585C100.794 89.585 101.229 89.5371 101.64 89.4414C102.05 89.3457 102.478 89.193 102.925 88.9834V90.5967C102.56 90.779 102.171 90.9134 101.756 91C101.341 91.0911 100.835 91.1367 100.238 91.1367Z" fill="#1A1A1A"/>
<path d="M45.5781 14.8594C43.7552 14.8594 42.3438 15.5469 41.3438 16.9219C40.3438 18.2865 39.8438 20.1927 39.8438 22.6406C39.8438 27.7344 41.7552 30.2812 45.5781 30.2812C47.1823 30.2812 49.125 29.8802 51.4062 29.0781V33.1406C49.5312 33.9219 47.4375 34.3125 45.125 34.3125C41.8021 34.3125 39.2604 33.3073 37.5 31.2969C35.7396 29.276 34.8594 26.3802 34.8594 22.6094C34.8594 20.2344 35.2917 18.1562 36.1562 16.375C37.0208 14.5833 38.2604 13.2135 39.875 12.2656C41.5 11.3073 43.401 10.8281 45.5781 10.8281C47.7969 10.8281 50.026 11.3646 52.2656 12.4375L50.7031 16.375C49.849 15.9688 48.9896 15.6146 48.125 15.3125C47.2604 15.0104 46.4115 14.8594 45.5781 14.8594ZM65.6562 16.2031C66.3021 16.2031 66.8385 16.25 67.2656 16.3438L66.9062 20.8125C66.5208 20.7083 66.0521 20.6562 65.5 20.6562C63.9792 20.6562 62.7917 21.0469 61.9375 21.8281C61.0938 22.6094 60.6719 23.7031 60.6719 25.1094V34H55.9062V16.5312H59.5156L60.2188 19.4688H60.4531C60.9948 18.4896 61.724 17.7031 62.6406 17.1094C63.5677 16.5052 64.5729 16.2031 65.6562 16.2031ZM77.6719 19.5938C76.6615 19.5938 75.8698 19.9167 75.2969 20.5625C74.724 21.1979 74.3958 22.1042 74.3125 23.2812H81C80.9792 22.1042 80.6719 21.1979 80.0781 20.5625C79.4844 19.9167 78.6823 19.5938 77.6719 19.5938ZM78.3438 34.3125C75.5312 34.3125 73.3333 33.5365 71.75 31.9844C70.1667 30.4323 69.375 28.2344 69.375 25.3906C69.375 22.4635 70.1042 20.2031 71.5625 18.6094C73.0312 17.0052 75.0573 16.2031 77.6406 16.2031C80.1094 16.2031 82.0312 16.9062 83.4062 18.3125C84.7812 19.7188 85.4688 21.6615 85.4688 24.1406V26.4531H74.2031C74.2552 27.8073 74.6562 28.8646 75.4062 29.625C76.1562 30.3854 77.2083 30.7656 78.5625 30.7656C79.6146 30.7656 80.6094 30.6562 81.5469 30.4375C82.4844 30.2188 83.4635 29.8698 84.4844 29.3906V33.0781C83.651 33.4948 82.7604 33.8021 81.8125 34C80.8646 34.2083 79.7083 34.3125 78.3438 34.3125ZM100.438 34L99.5156 31.625H99.3906C98.5885 32.6354 97.7604 33.3385 96.9062 33.7344C96.0625 34.1198 94.9583 34.3125 93.5938 34.3125C91.9167 34.3125 90.5938 33.8333 89.625 32.875C88.6667 31.9167 88.1875 30.5521 88.1875 28.7812C88.1875 26.9271 88.8333 25.5625 90.125 24.6875C91.4271 23.8021 93.3854 23.3125 96 23.2188L99.0312 23.125V22.3594C99.0312 20.5885 98.125 19.7031 96.3125 19.7031C94.9167 19.7031 93.276 20.125 91.3906 20.9688L89.8125 17.75C91.8229 16.6979 94.0521 16.1719 96.5 16.1719C98.8438 16.1719 100.641 16.6823 101.891 17.7031C103.141 18.724 103.766 20.276 103.766 22.3594V34H100.438ZM99.0312 25.9062L97.1875 25.9688C95.8021 26.0104 94.7708 26.2604 94.0938 26.7188C93.4167 27.1771 93.0781 27.875 93.0781 28.8125C93.0781 30.1562 93.849 30.8281 95.3906 30.8281C96.4948 30.8281 97.375 30.5104 98.0312 29.875C98.6979 29.2396 99.0312 28.3958 99.0312 27.3438V25.9062ZM116.047 30.5156C116.88 30.5156 117.88 30.3333 119.047 29.9688V33.5156C117.859 34.0469 116.401 34.3125 114.672 34.3125C112.766 34.3125 111.375 33.8333 110.5 32.875C109.635 31.9062 109.203 30.4583 109.203 28.5312V20.1094H106.922V18.0938L109.547 16.5L110.922 12.8125H113.969V16.5312H118.859V20.1094H113.969V28.5312C113.969 29.2083 114.156 29.7083 114.531 30.0312C114.917 30.3542 115.422 30.5156 116.047 30.5156ZM129.828 19.5938C128.818 19.5938 128.026 19.9167 127.453 20.5625C126.88 21.1979 126.552 22.1042 126.469 23.2812H133.156C133.135 22.1042 132.828 21.1979 132.234 20.5625C131.641 19.9167 130.839 19.5938 129.828 19.5938ZM130.5 34.3125C127.688 34.3125 125.49 33.5365 123.906 31.9844C122.323 30.4323 121.531 28.2344 121.531 25.3906C121.531 22.4635 122.26 20.2031 123.719 18.6094C125.188 17.0052 127.214 16.2031 129.797 16.2031C132.266 16.2031 134.188 16.9062 135.562 18.3125C136.938 19.7188 137.625 21.6615 137.625 24.1406V26.4531H126.359C126.411 27.8073 126.812 28.8646 127.562 29.625C128.312 30.3854 129.365 30.7656 130.719 30.7656C131.771 30.7656 132.766 30.6562 133.703 30.4375C134.641 30.2188 135.62 29.8698 136.641 29.3906V33.0781C135.807 33.4948 134.917 33.8021 133.969 34C133.021 34.2083 131.865 34.3125 130.5 34.3125ZM160.906 34L159.984 31.625H159.859C159.057 32.6354 158.229 33.3385 157.375 33.7344C156.531 34.1198 155.427 34.3125 154.062 34.3125C152.385 34.3125 151.062 33.8333 150.094 32.875C149.135 31.9167 148.656 30.5521 148.656 28.7812C148.656 26.9271 149.302 25.5625 150.594 24.6875C151.896 23.8021 153.854 23.3125 156.469 23.2188L159.5 23.125V22.3594C159.5 20.5885 158.594 19.7031 156.781 19.7031C155.385 19.7031 153.745 20.125 151.859 20.9688L150.281 17.75C152.292 16.6979 154.521 16.1719 156.969 16.1719C159.312 16.1719 161.109 16.6823 162.359 17.7031C163.609 18.724 164.234 20.276 164.234 22.3594V34H160.906ZM159.5 25.9062L157.656 25.9688C156.271 26.0104 155.24 26.2604 154.562 26.7188C153.885 27.1771 153.547 27.875 153.547 28.8125C153.547 30.1562 154.318 30.8281 155.859 30.8281C156.964 30.8281 157.844 30.5104 158.5 29.875C159.167 29.2396 159.5 28.3958 159.5 27.3438V25.9062ZM185.281 34H180.516V23.7969C180.516 22.5365 180.292 21.5938 179.844 20.9688C179.396 20.3333 178.682 20.0156 177.703 20.0156C176.37 20.0156 175.406 20.4635 174.812 21.3594C174.219 22.2448 173.922 23.7188 173.922 25.7812V34H169.156V16.5312H172.797L173.438 18.7656H173.703C174.234 17.9219 174.964 17.2865 175.891 16.8594C176.828 16.4219 177.891 16.2031 179.078 16.2031C181.109 16.2031 182.651 16.7552 183.703 17.8594C184.755 18.9531 185.281 20.5365 185.281 22.6094V34ZM212.859 34L211.203 28.5625H202.875L201.219 34H196L204.062 11.0625H209.984L218.078 34H212.859ZM210.047 24.5C208.516 19.5729 207.651 16.7865 207.453 16.1406C207.266 15.4948 207.13 14.9844 207.047 14.6094C206.703 15.9427 205.719 19.2396 204.094 24.5H210.047ZM227.688 34.3125C222.25 34.3125 219.531 31.3281 219.531 25.3594C219.531 22.3906 220.271 20.125 221.75 18.5625C223.229 16.9896 225.349 16.2031 228.109 16.2031C230.13 16.2031 231.943 16.599 233.547 17.3906L232.141 21.0781C231.391 20.776 230.693 20.5312 230.047 20.3438C229.401 20.1458 228.755 20.0469 228.109 20.0469C225.63 20.0469 224.391 21.8073 224.391 25.3281C224.391 28.7448 225.63 30.4531 228.109 30.4531C229.026 30.4531 229.875 30.3333 230.656 30.0938C231.438 29.8438 232.219 29.4583 233 28.9375V33.0156C232.229 33.5052 231.448 33.8438 230.656 34.0312C229.875 34.2188 228.885 34.3125 227.688 34.3125ZM244.156 34.3125C238.719 34.3125 236 31.3281 236 25.3594C236 22.3906 236.74 20.125 238.219 18.5625C239.698 16.9896 241.818 16.2031 244.578 16.2031C246.599 16.2031 248.411 16.599 250.016 17.3906L248.609 21.0781C247.859 20.776 247.161 20.5312 246.516 20.3438C245.87 20.1458 245.224 20.0469 244.578 20.0469C242.099 20.0469 240.859 21.8073 240.859 25.3281C240.859 28.7448 242.099 30.4531 244.578 30.4531C245.495 30.4531 246.344 30.3333 247.125 30.0938C247.906 29.8438 248.688 29.4583 249.469 28.9375V33.0156C248.698 33.5052 247.917 33.8438 247.125 34.0312C246.344 34.2188 245.354 34.3125 244.156 34.3125ZM257.328 25.2344C257.328 26.9635 257.609 28.2708 258.172 29.1562C258.745 30.0417 259.672 30.4844 260.953 30.4844C262.224 30.4844 263.135 30.0469 263.688 29.1719C264.25 28.2865 264.531 26.974 264.531 25.2344C264.531 23.5052 264.25 22.2083 263.688 21.3438C263.125 20.4792 262.203 20.0469 260.922 20.0469C259.651 20.0469 258.734 20.4792 258.172 21.3438C257.609 22.1979 257.328 23.4948 257.328 25.2344ZM269.406 25.2344C269.406 28.0781 268.656 30.3021 267.156 31.9062C265.656 33.5104 263.568 34.3125 260.891 34.3125C259.214 34.3125 257.734 33.9479 256.453 33.2188C255.172 32.4792 254.188 31.4219 253.5 30.0469C252.812 28.6719 252.469 27.0677 252.469 25.2344C252.469 22.3802 253.214 20.1615 254.703 18.5781C256.193 16.9948 258.286 16.2031 260.984 16.2031C262.661 16.2031 264.141 16.5677 265.422 17.2969C266.703 18.026 267.688 19.0729 268.375 20.4375C269.062 21.8021 269.406 23.401 269.406 25.2344ZM285.719 34L285.078 31.7656H284.828C284.318 32.5781 283.594 33.2083 282.656 33.6562C281.719 34.0938 280.651 34.3125 279.453 34.3125C277.401 34.3125 275.854 33.7656 274.812 32.6719C273.771 31.5677 273.25 29.9844 273.25 27.9219V16.5312H278.016V26.7344C278.016 27.9948 278.24 28.9427 278.688 29.5781C279.135 30.2031 279.849 30.5156 280.828 30.5156C282.161 30.5156 283.125 30.0729 283.719 29.1875C284.312 28.2917 284.609 26.8125 284.609 24.75V16.5312H289.375V34H285.719ZM310.5 34H305.734V23.7969C305.734 22.5365 305.51 21.5938 305.062 20.9688C304.615 20.3333 303.901 20.0156 302.922 20.0156C301.589 20.0156 300.625 20.4635 300.031 21.3594C299.438 22.2448 299.141 23.7188 299.141 25.7812V34H294.375V16.5312H298.016L298.656 18.7656H298.922C299.453 17.9219 300.182 17.2865 301.109 16.8594C302.047 16.4219 303.109 16.2031 304.297 16.2031C306.328 16.2031 307.87 16.7552 308.922 17.8594C309.974 18.9531 310.5 20.5365 310.5 22.6094V34ZM322.766 30.5156C323.599 30.5156 324.599 30.3333 325.766 29.9688V33.5156C324.578 34.0469 323.12 34.3125 321.391 34.3125C319.484 34.3125 318.094 33.8333 317.219 32.875C316.354 31.9062 315.922 30.4583 315.922 28.5312V20.1094H313.641V18.0938L316.266 16.5L317.641 12.8125H320.688V16.5312H325.578V20.1094H320.688V28.5312C320.688 29.2083 320.875 29.7083 321.25 30.0312C321.635 30.3542 322.141 30.5156 322.766 30.5156Z" fill="#1A1A1A"/>
<g filter="url(#filter0_d)">
<rect x="33" y="589" width="320" height="50" rx="12" fill="#D90429"/>
</g>
<path d="M90.5371 686L89.8125 683.621H86.1689L85.4443 686H83.1611L86.6885 675.965H89.2793L92.8203 686H90.5371ZM89.3066 681.844C88.6367 679.688 88.2585 678.469 88.1719 678.187C88.0898 677.904 88.0306 677.681 87.9941 677.517C87.8438 678.1 87.4131 679.542 86.7021 681.844H89.3066ZM96.0059 686H93.9209V675.363H96.0059V686ZM102.466 678.214C102.748 678.214 102.983 678.234 103.17 678.275L103.013 680.23C102.844 680.185 102.639 680.162 102.397 680.162C101.732 680.162 101.213 680.333 100.839 680.675C100.47 681.017 100.285 681.495 100.285 682.11V686H98.2002V678.357H99.7793L100.087 679.643H100.189C100.426 679.214 100.745 678.87 101.146 678.61C101.552 678.346 101.992 678.214 102.466 678.214ZM107.723 679.697C107.281 679.697 106.934 679.839 106.684 680.121C106.433 680.399 106.289 680.796 106.253 681.311H109.179C109.17 680.796 109.035 680.399 108.775 680.121C108.516 679.839 108.165 679.697 107.723 679.697ZM108.017 686.137C106.786 686.137 105.825 685.797 105.132 685.118C104.439 684.439 104.093 683.478 104.093 682.233C104.093 680.953 104.412 679.964 105.05 679.267C105.692 678.565 106.579 678.214 107.709 678.214C108.789 678.214 109.63 678.521 110.231 679.137C110.833 679.752 111.134 680.602 111.134 681.687V682.698H106.205C106.228 683.291 106.403 683.753 106.731 684.086C107.06 684.419 107.52 684.585 108.112 684.585C108.573 684.585 109.008 684.537 109.418 684.441C109.828 684.346 110.257 684.193 110.703 683.983V685.597C110.339 685.779 109.949 685.913 109.534 686C109.119 686.091 108.614 686.137 108.017 686.137ZM117.683 686L117.279 684.961H117.225C116.874 685.403 116.511 685.711 116.138 685.884C115.769 686.052 115.285 686.137 114.688 686.137C113.955 686.137 113.376 685.927 112.952 685.508C112.533 685.089 112.323 684.492 112.323 683.717C112.323 682.906 112.606 682.309 113.171 681.926C113.741 681.538 114.597 681.324 115.741 681.283L117.067 681.242V680.907C117.067 680.132 116.671 679.745 115.878 679.745C115.267 679.745 114.549 679.93 113.725 680.299L113.034 678.891C113.914 678.43 114.889 678.2 115.96 678.2C116.985 678.2 117.771 678.424 118.318 678.87C118.865 679.317 119.139 679.996 119.139 680.907V686H117.683ZM117.067 682.459L116.261 682.486C115.655 682.505 115.203 682.614 114.907 682.814C114.611 683.015 114.463 683.32 114.463 683.73C114.463 684.318 114.8 684.612 115.475 684.612C115.958 684.612 116.343 684.473 116.63 684.195C116.922 683.917 117.067 683.548 117.067 683.088V682.459ZM123.712 686.137C122.814 686.137 122.108 685.788 121.593 685.091C121.082 684.394 120.827 683.427 120.827 682.192C120.827 680.939 121.087 679.964 121.606 679.267C122.131 678.565 122.851 678.214 123.767 678.214C124.728 678.214 125.462 678.588 125.968 679.335H126.036C125.931 678.765 125.879 678.257 125.879 677.811V675.363H127.971V686H126.371L125.968 685.009H125.879C125.405 685.761 124.683 686.137 123.712 686.137ZM124.443 684.476C124.977 684.476 125.366 684.321 125.612 684.011C125.863 683.701 126 683.174 126.022 682.432V682.206C126.022 681.386 125.895 680.798 125.64 680.442C125.389 680.087 124.979 679.909 124.409 679.909C123.944 679.909 123.582 680.107 123.322 680.504C123.067 680.896 122.939 681.468 122.939 682.22C122.939 682.972 123.069 683.537 123.329 683.915C123.589 684.289 123.96 684.476 124.443 684.476ZM129.058 678.357H131.341L132.783 682.657C132.906 683.031 132.991 683.473 133.036 683.983H133.077C133.127 683.514 133.225 683.072 133.371 682.657L134.786 678.357H137.021L133.788 686.978C133.492 687.775 133.068 688.372 132.517 688.769C131.97 689.165 131.329 689.363 130.596 689.363C130.236 689.363 129.882 689.325 129.536 689.247V687.593C129.787 687.652 130.06 687.682 130.356 687.682C130.726 687.682 131.047 687.568 131.32 687.34C131.598 687.117 131.815 686.777 131.97 686.321L132.093 685.945L129.058 678.357ZM148.813 686H146.729V681.536C146.729 680.433 146.318 679.882 145.498 679.882C144.915 679.882 144.493 680.08 144.233 680.477C143.974 680.873 143.844 681.516 143.844 682.404V686H141.759V675.363H143.844V677.53C143.844 677.699 143.828 678.095 143.796 678.72L143.748 679.335H143.857C144.322 678.588 145.061 678.214 146.072 678.214C146.97 678.214 147.651 678.455 148.116 678.938C148.581 679.422 148.813 680.114 148.813 681.017V686ZM155.813 686L155.41 684.961H155.355C155.005 685.403 154.642 685.711 154.269 685.884C153.899 686.052 153.416 686.137 152.819 686.137C152.086 686.137 151.507 685.927 151.083 685.508C150.664 685.089 150.454 684.492 150.454 683.717C150.454 682.906 150.737 682.309 151.302 681.926C151.871 681.538 152.728 681.324 153.872 681.283L155.198 681.242V680.907C155.198 680.132 154.802 679.745 154.009 679.745C153.398 679.745 152.68 679.93 151.855 680.299L151.165 678.891C152.045 678.43 153.02 678.2 154.091 678.2C155.116 678.2 155.902 678.424 156.449 678.87C156.996 679.317 157.27 679.996 157.27 680.907V686H155.813ZM155.198 682.459L154.392 682.486C153.785 682.505 153.334 682.614 153.038 682.814C152.742 683.015 152.594 683.32 152.594 683.73C152.594 684.318 152.931 684.612 153.605 684.612C154.089 684.612 154.474 684.473 154.761 684.195C155.052 683.917 155.198 683.548 155.198 683.088V682.459ZM161.241 686L158.329 678.357H160.51L161.986 682.712C162.15 683.263 162.253 683.785 162.294 684.277H162.335C162.358 683.84 162.46 683.318 162.643 682.712L164.112 678.357H166.293L163.381 686H161.241ZM170.559 679.697C170.117 679.697 169.77 679.839 169.52 680.121C169.269 680.399 169.125 680.796 169.089 681.311H172.015C172.006 680.796 171.871 680.399 171.611 680.121C171.352 679.839 171.001 679.697 170.559 679.697ZM170.853 686.137C169.622 686.137 168.66 685.797 167.968 685.118C167.275 684.439 166.929 683.478 166.929 682.233C166.929 680.953 167.248 679.964 167.886 679.267C168.528 678.565 169.415 678.214 170.545 678.214C171.625 678.214 172.466 678.521 173.067 679.137C173.669 679.752 173.97 680.602 173.97 681.687V682.698H169.041C169.064 683.291 169.239 683.753 169.567 684.086C169.896 684.419 170.356 684.585 170.948 684.585C171.409 684.585 171.844 684.537 172.254 684.441C172.664 684.346 173.092 684.193 173.539 683.983V685.597C173.174 685.779 172.785 685.913 172.37 686C171.955 686.091 171.45 686.137 170.853 686.137ZM184.155 686L183.752 684.961H183.697C183.346 685.403 182.984 685.711 182.61 685.884C182.241 686.052 181.758 686.137 181.161 686.137C180.427 686.137 179.849 685.927 179.425 685.508C179.006 685.089 178.796 684.492 178.796 683.717C178.796 682.906 179.078 682.309 179.644 681.926C180.213 681.538 181.07 681.324 182.214 681.283L183.54 681.242V680.907C183.54 680.132 183.144 679.745 182.351 679.745C181.74 679.745 181.022 679.93 180.197 680.299L179.507 678.891C180.386 678.43 181.362 678.2 182.433 678.2C183.458 678.2 184.244 678.424 184.791 678.87C185.338 679.317 185.611 679.996 185.611 680.907V686H184.155ZM183.54 682.459L182.733 682.486C182.127 682.505 181.676 682.614 181.38 682.814C181.084 683.015 180.936 683.32 180.936 683.73C180.936 684.318 181.273 684.612 181.947 684.612C182.43 684.612 182.815 684.473 183.103 684.195C183.394 683.917 183.54 683.548 183.54 683.088V682.459ZM194.819 686H192.734V681.536C192.734 680.985 192.636 680.572 192.44 680.299C192.244 680.021 191.932 679.882 191.504 679.882C190.921 679.882 190.499 680.078 190.239 680.47C189.979 680.857 189.85 681.502 189.85 682.404V686H187.765V678.357H189.357L189.638 679.335H189.754C189.986 678.966 190.305 678.688 190.711 678.501C191.121 678.31 191.586 678.214 192.105 678.214C192.994 678.214 193.669 678.455 194.129 678.938C194.589 679.417 194.819 680.11 194.819 681.017V686ZM205.456 686L205.053 684.961H204.998C204.647 685.403 204.285 685.711 203.911 685.884C203.542 686.052 203.059 686.137 202.462 686.137C201.728 686.137 201.149 685.927 200.726 685.508C200.306 685.089 200.097 684.492 200.097 683.717C200.097 682.906 200.379 682.309 200.944 681.926C201.514 681.538 202.371 681.324 203.515 681.283L204.841 681.242V680.907C204.841 680.132 204.444 679.745 203.651 679.745C203.041 679.745 202.323 679.93 201.498 680.299L200.808 678.891C201.687 678.43 202.662 678.2 203.733 678.2C204.759 678.2 205.545 678.424 206.092 678.87C206.639 679.317 206.912 679.996 206.912 680.907V686H205.456ZM204.841 682.459L204.034 682.486C203.428 682.505 202.977 682.614 202.681 682.814C202.384 683.015 202.236 683.32 202.236 683.73C202.236 684.318 202.574 684.612 203.248 684.612C203.731 684.612 204.116 684.473 204.403 684.195C204.695 683.917 204.841 683.548 204.841 683.088V682.459ZM212.169 686.137C209.79 686.137 208.601 684.831 208.601 682.22C208.601 680.921 208.924 679.93 209.571 679.246C210.218 678.558 211.146 678.214 212.354 678.214C213.238 678.214 214.031 678.387 214.732 678.733L214.117 680.347C213.789 680.215 213.484 680.107 213.201 680.025C212.919 679.939 212.636 679.896 212.354 679.896C211.269 679.896 210.727 680.666 210.727 682.206C210.727 683.701 211.269 684.448 212.354 684.448C212.755 684.448 213.126 684.396 213.468 684.291C213.81 684.182 214.151 684.013 214.493 683.785V685.569C214.156 685.784 213.814 685.932 213.468 686.014C213.126 686.096 212.693 686.137 212.169 686.137ZM219.374 686.137C216.995 686.137 215.806 684.831 215.806 682.22C215.806 680.921 216.129 679.93 216.776 679.246C217.424 678.558 218.351 678.214 219.559 678.214C220.443 678.214 221.236 678.387 221.938 678.733L221.322 680.347C220.994 680.215 220.689 680.107 220.406 680.025C220.124 679.939 219.841 679.896 219.559 679.896C218.474 679.896 217.932 680.666 217.932 682.206C217.932 683.701 218.474 684.448 219.559 684.448C219.96 684.448 220.331 684.396 220.673 684.291C221.015 684.182 221.356 684.013 221.698 683.785V685.569C221.361 685.784 221.019 685.932 220.673 686.014C220.331 686.096 219.898 686.137 219.374 686.137ZM225.137 682.165C225.137 682.922 225.26 683.493 225.506 683.881C225.757 684.268 226.162 684.462 226.723 684.462C227.279 684.462 227.677 684.271 227.919 683.888C228.165 683.5 228.288 682.926 228.288 682.165C228.288 681.409 228.165 680.841 227.919 680.463C227.673 680.085 227.27 679.896 226.709 679.896C226.153 679.896 225.752 680.085 225.506 680.463C225.26 680.837 225.137 681.404 225.137 682.165ZM230.421 682.165C230.421 683.409 230.093 684.382 229.437 685.084C228.78 685.786 227.867 686.137 226.695 686.137C225.962 686.137 225.314 685.977 224.754 685.658C224.193 685.335 223.763 684.872 223.462 684.271C223.161 683.669 223.011 682.967 223.011 682.165C223.011 680.916 223.337 679.946 223.988 679.253C224.64 678.56 225.556 678.214 226.736 678.214C227.47 678.214 228.117 678.373 228.678 678.692C229.238 679.011 229.669 679.469 229.97 680.066C230.271 680.663 230.421 681.363 230.421 682.165ZM237.558 686L237.277 685.022H237.168C236.945 685.378 236.628 685.654 236.218 685.85C235.808 686.041 235.34 686.137 234.816 686.137C233.919 686.137 233.242 685.897 232.786 685.419C232.33 684.936 232.103 684.243 232.103 683.341V678.357H234.188V682.821C234.188 683.373 234.285 683.787 234.481 684.065C234.677 684.339 234.99 684.476 235.418 684.476C236.001 684.476 236.423 684.282 236.683 683.895C236.942 683.503 237.072 682.855 237.072 681.953V678.357H239.157V686H237.558ZM248.399 686H246.314V681.536C246.314 680.985 246.216 680.572 246.021 680.299C245.825 680.021 245.512 679.882 245.084 679.882C244.501 679.882 244.079 680.078 243.819 680.47C243.56 680.857 243.43 681.502 243.43 682.404V686H241.345V678.357H242.938L243.218 679.335H243.334C243.566 678.966 243.885 678.688 244.291 678.501C244.701 678.31 245.166 678.214 245.686 678.214C246.574 678.214 247.249 678.455 247.709 678.938C248.169 679.417 248.399 680.11 248.399 681.017V686ZM253.766 684.476C254.13 684.476 254.568 684.396 255.078 684.236V685.788C254.559 686.021 253.921 686.137 253.164 686.137C252.33 686.137 251.722 685.927 251.339 685.508C250.961 685.084 250.771 684.451 250.771 683.607V679.923H249.773V679.041L250.922 678.344L251.523 676.73H252.856V678.357H254.996V679.923H252.856V683.607C252.856 683.904 252.938 684.122 253.103 684.264C253.271 684.405 253.492 684.476 253.766 684.476ZM257.423 682.685V682.179C257.423 681.741 257.516 681.361 257.703 681.037C257.89 680.714 258.232 680.369 258.729 680.005C259.207 679.663 259.521 679.385 259.672 679.171C259.827 678.957 259.904 678.717 259.904 678.453C259.904 678.157 259.795 677.931 259.576 677.776C259.357 677.621 259.052 677.544 258.66 677.544C257.977 677.544 257.197 677.767 256.322 678.214L255.577 676.717C256.593 676.147 257.671 675.862 258.811 675.862C259.749 675.862 260.494 676.088 261.046 676.539C261.602 676.99 261.88 677.592 261.88 678.344C261.88 678.845 261.766 679.278 261.538 679.643C261.31 680.007 260.877 680.417 260.239 680.873C259.802 681.197 259.524 681.443 259.405 681.611C259.291 681.78 259.234 682.001 259.234 682.274V682.685H257.423ZM257.204 685.022C257.204 684.64 257.307 684.35 257.512 684.154C257.717 683.958 258.015 683.86 258.407 683.86C258.785 683.86 259.077 683.961 259.282 684.161C259.492 684.362 259.597 684.649 259.597 685.022C259.597 685.382 259.492 685.667 259.282 685.877C259.073 686.082 258.781 686.185 258.407 686.185C258.024 686.185 257.728 686.084 257.519 685.884C257.309 685.679 257.204 685.392 257.204 685.022Z" fill="#828282"/>
<path d="M267.116 686V676.006H269.235V684.25H273.289V686H267.116ZM276.529 682.165C276.529 682.922 276.652 683.493 276.898 683.881C277.149 684.268 277.555 684.462 278.115 684.462C278.671 684.462 279.07 684.271 279.312 683.888C279.558 683.5 279.681 682.926 279.681 682.165C279.681 681.409 279.558 680.841 279.312 680.463C279.065 680.085 278.662 679.896 278.102 679.896C277.546 679.896 277.145 680.085 276.898 680.463C276.652 680.837 276.529 681.404 276.529 682.165ZM281.813 682.165C281.813 683.409 281.485 684.382 280.829 685.084C280.173 685.786 279.259 686.137 278.088 686.137C277.354 686.137 276.707 685.977 276.146 685.658C275.586 685.335 275.155 684.872 274.854 684.271C274.554 683.669 274.403 682.967 274.403 682.165C274.403 680.916 274.729 679.946 275.381 679.253C276.033 678.56 276.949 678.214 278.129 678.214C278.863 678.214 279.51 678.373 280.07 678.692C280.631 679.011 281.062 679.469 281.362 680.066C281.663 680.663 281.813 681.363 281.813 682.165ZM290.188 678.357V679.417L288.991 679.725C289.21 680.066 289.319 680.449 289.319 680.873C289.319 681.693 289.032 682.334 288.458 682.794C287.888 683.25 287.095 683.478 286.079 683.478L285.703 683.457L285.396 683.423C285.181 683.587 285.074 683.769 285.074 683.97C285.074 684.271 285.457 684.421 286.223 684.421H287.521C288.36 684.421 288.998 684.601 289.436 684.961C289.878 685.321 290.099 685.85 290.099 686.547C290.099 687.44 289.725 688.133 288.978 688.625C288.235 689.117 287.166 689.363 285.771 689.363C284.705 689.363 283.889 689.176 283.324 688.803C282.764 688.434 282.483 687.914 282.483 687.244C282.483 686.784 282.627 686.399 282.914 686.089C283.201 685.779 283.623 685.558 284.179 685.426C283.965 685.335 283.778 685.187 283.618 684.981C283.459 684.772 283.379 684.551 283.379 684.318C283.379 684.027 283.463 683.785 283.632 683.594C283.8 683.398 284.044 683.206 284.363 683.02C283.962 682.846 283.643 682.568 283.406 682.186C283.174 681.803 283.058 681.352 283.058 680.832C283.058 679.998 283.329 679.353 283.871 678.897C284.413 678.442 285.188 678.214 286.195 678.214C286.41 678.214 286.662 678.234 286.954 678.275C287.25 678.312 287.439 678.339 287.521 678.357H290.188ZM284.288 687.08C284.288 687.367 284.425 687.593 284.698 687.757C284.976 687.921 285.364 688.003 285.86 688.003C286.608 688.003 287.193 687.9 287.617 687.695C288.041 687.49 288.253 687.21 288.253 686.854C288.253 686.567 288.128 686.369 287.877 686.26C287.626 686.15 287.239 686.096 286.715 686.096H285.635C285.252 686.096 284.931 686.185 284.671 686.362C284.416 686.545 284.288 686.784 284.288 687.08ZM285.047 680.859C285.047 681.274 285.14 681.602 285.327 681.844C285.519 682.085 285.808 682.206 286.195 682.206C286.587 682.206 286.874 682.085 287.057 681.844C287.239 681.602 287.33 681.274 287.33 680.859C287.33 679.939 286.952 679.479 286.195 679.479C285.43 679.479 285.047 679.939 285.047 680.859ZM291.363 676.382C291.363 675.703 291.742 675.363 292.498 675.363C293.255 675.363 293.633 675.703 293.633 676.382C293.633 676.705 293.537 676.958 293.346 677.141C293.159 677.318 292.876 677.407 292.498 677.407C291.742 677.407 291.363 677.065 291.363 676.382ZM293.537 686H291.452V678.357H293.537V686ZM302.786 686H300.701V681.536C300.701 680.985 300.603 680.572 300.407 680.299C300.211 680.021 299.899 679.882 299.471 679.882C298.887 679.882 298.466 680.078 298.206 680.47C297.946 680.857 297.816 681.502 297.816 682.404V686H295.731V678.357H297.324L297.604 679.335H297.721C297.953 678.966 298.272 678.688 298.678 678.501C299.088 678.31 299.553 678.214 300.072 678.214C300.961 678.214 301.635 678.455 302.096 678.938C302.556 679.417 302.786 680.11 302.786 681.017V686Z" fill="#D90429"/>
<path d="M117.44 611.233C116.415 611.233 115.621 611.62 115.059 612.394C114.496 613.161 114.215 614.233 114.215 615.61C114.215 618.476 115.29 619.908 117.44 619.908C118.343 619.908 119.436 619.683 120.719 619.231V621.517C119.664 621.956 118.486 622.176 117.186 622.176C115.316 622.176 113.887 621.61 112.896 620.479C111.906 619.343 111.411 617.714 111.411 615.593C111.411 614.257 111.654 613.088 112.141 612.086C112.627 611.078 113.324 610.308 114.232 609.774C115.146 609.235 116.216 608.966 117.44 608.966C118.688 608.966 119.942 609.268 121.202 609.871L120.323 612.086C119.843 611.857 119.359 611.658 118.873 611.488C118.387 611.318 117.909 611.233 117.44 611.233ZM128.734 611.989C129.098 611.989 129.399 612.016 129.64 612.068L129.438 614.582C129.221 614.523 128.957 614.494 128.646 614.494C127.791 614.494 127.123 614.714 126.643 615.153C126.168 615.593 125.931 616.208 125.931 616.999V622H123.25V612.174H125.28L125.676 613.826H125.808C126.112 613.275 126.522 612.833 127.038 612.499C127.56 612.159 128.125 611.989 128.734 611.989ZM135.493 613.896C134.925 613.896 134.479 614.078 134.157 614.441C133.835 614.799 133.65 615.309 133.604 615.971H137.365C137.354 615.309 137.181 614.799 136.847 614.441C136.513 614.078 136.062 613.896 135.493 613.896ZM135.871 622.176C134.289 622.176 133.053 621.739 132.162 620.866C131.271 619.993 130.826 618.757 130.826 617.157C130.826 615.511 131.236 614.239 132.057 613.343C132.883 612.44 134.022 611.989 135.476 611.989C136.864 611.989 137.945 612.385 138.719 613.176C139.492 613.967 139.879 615.06 139.879 616.454V617.755H133.542C133.571 618.517 133.797 619.111 134.219 619.539C134.641 619.967 135.232 620.181 135.994 620.181C136.586 620.181 137.146 620.119 137.673 619.996C138.2 619.873 138.751 619.677 139.325 619.407V621.481C138.856 621.716 138.355 621.889 137.822 622C137.289 622.117 136.639 622.176 135.871 622.176ZM148.299 622L147.78 620.664H147.71C147.259 621.232 146.793 621.628 146.312 621.851C145.838 622.067 145.217 622.176 144.449 622.176C143.506 622.176 142.762 621.906 142.217 621.367C141.678 620.828 141.408 620.061 141.408 619.064C141.408 618.021 141.771 617.254 142.498 616.762C143.23 616.264 144.332 615.988 145.803 615.936L147.508 615.883V615.452C147.508 614.456 146.998 613.958 145.979 613.958C145.193 613.958 144.271 614.195 143.21 614.67L142.322 612.859C143.453 612.268 144.707 611.972 146.084 611.972C147.402 611.972 148.413 612.259 149.116 612.833C149.819 613.407 150.171 614.28 150.171 615.452V622H148.299ZM147.508 617.447L146.471 617.482C145.691 617.506 145.111 617.646 144.73 617.904C144.35 618.162 144.159 618.555 144.159 619.082C144.159 619.838 144.593 620.216 145.46 620.216C146.081 620.216 146.576 620.037 146.945 619.68C147.32 619.322 147.508 618.848 147.508 618.256V617.447ZM157.079 620.04C157.548 620.04 158.11 619.938 158.767 619.732V621.728C158.099 622.026 157.278 622.176 156.306 622.176C155.233 622.176 154.451 621.906 153.959 621.367C153.473 620.822 153.229 620.008 153.229 618.924V614.187H151.946V613.053L153.423 612.156L154.196 610.082H155.91V612.174H158.661V614.187H155.91V618.924C155.91 619.305 156.016 619.586 156.227 619.768C156.443 619.949 156.728 620.04 157.079 620.04ZM164.831 613.896C164.263 613.896 163.817 614.078 163.495 614.441C163.173 614.799 162.988 615.309 162.941 615.971H166.703C166.691 615.309 166.519 614.799 166.185 614.441C165.851 614.078 165.399 613.896 164.831 613.896ZM165.209 622.176C163.627 622.176 162.391 621.739 161.5 620.866C160.609 619.993 160.164 618.757 160.164 617.157C160.164 615.511 160.574 614.239 161.395 613.343C162.221 612.44 163.36 611.989 164.813 611.989C166.202 611.989 167.283 612.385 168.057 613.176C168.83 613.967 169.217 615.06 169.217 616.454V617.755H162.88C162.909 618.517 163.135 619.111 163.557 619.539C163.979 619.967 164.57 620.181 165.332 620.181C165.924 620.181 166.483 620.119 167.011 619.996C167.538 619.873 168.089 619.677 168.663 619.407V621.481C168.194 621.716 167.693 621.889 167.16 622C166.627 622.117 165.977 622.176 165.209 622.176ZM182.312 622L181.794 620.664H181.724C181.272 621.232 180.807 621.628 180.326 621.851C179.852 622.067 179.23 622.176 178.463 622.176C177.52 622.176 176.775 621.906 176.23 621.367C175.691 620.828 175.422 620.061 175.422 619.064C175.422 618.021 175.785 617.254 176.512 616.762C177.244 616.264 178.346 615.988 179.816 615.936L181.521 615.883V615.452C181.521 614.456 181.012 613.958 179.992 613.958C179.207 613.958 178.284 614.195 177.224 614.67L176.336 612.859C177.467 612.268 178.721 611.972 180.098 611.972C181.416 611.972 182.427 612.259 183.13 612.833C183.833 613.407 184.185 614.28 184.185 615.452V622H182.312ZM181.521 617.447L180.484 617.482C179.705 617.506 179.125 617.646 178.744 617.904C178.363 618.162 178.173 618.555 178.173 619.082C178.173 619.838 178.606 620.216 179.474 620.216C180.095 620.216 180.59 620.037 180.959 619.68C181.334 619.322 181.521 618.848 181.521 618.256V617.447ZM196.023 622H193.343V616.261C193.343 615.552 193.217 615.021 192.965 614.67C192.713 614.312 192.312 614.134 191.761 614.134C191.011 614.134 190.469 614.386 190.135 614.89C189.801 615.388 189.634 616.217 189.634 617.377V622H186.953V612.174H189.001L189.361 613.431H189.511C189.81 612.956 190.22 612.599 190.741 612.358C191.269 612.112 191.866 611.989 192.534 611.989C193.677 611.989 194.544 612.3 195.136 612.921C195.728 613.536 196.023 614.427 196.023 615.593V622ZM211.536 622L210.604 618.941H205.92L204.988 622H202.053L206.588 609.098H209.919L214.472 622H211.536ZM209.954 616.656C209.093 613.885 208.606 612.317 208.495 611.954C208.39 611.591 208.313 611.304 208.267 611.093C208.073 611.843 207.52 613.697 206.605 616.656H209.954ZM219.877 622.176C216.818 622.176 215.289 620.497 215.289 617.14C215.289 615.47 215.705 614.195 216.537 613.316C217.369 612.432 218.562 611.989 220.114 611.989C221.251 611.989 222.271 612.212 223.173 612.657L222.382 614.731C221.96 614.562 221.567 614.424 221.204 614.318C220.841 614.207 220.478 614.151 220.114 614.151C218.72 614.151 218.022 615.142 218.022 617.122C218.022 619.044 218.72 620.005 220.114 620.005C220.63 620.005 221.107 619.938 221.547 619.803C221.986 619.662 222.426 619.445 222.865 619.152V621.446C222.432 621.722 221.992 621.912 221.547 622.018C221.107 622.123 220.551 622.176 219.877 622.176ZM229.141 622.176C226.082 622.176 224.553 620.497 224.553 617.14C224.553 615.47 224.969 614.195 225.801 613.316C226.633 612.432 227.825 611.989 229.378 611.989C230.515 611.989 231.534 612.212 232.437 612.657L231.646 614.731C231.224 614.562 230.831 614.424 230.468 614.318C230.104 614.207 229.741 614.151 229.378 614.151C227.983 614.151 227.286 615.142 227.286 617.122C227.286 619.044 227.983 620.005 229.378 620.005C229.894 620.005 230.371 619.938 230.811 619.803C231.25 619.662 231.689 619.445 232.129 619.152V621.446C231.695 621.722 231.256 621.912 230.811 622.018C230.371 622.123 229.814 622.176 229.141 622.176ZM236.55 617.069C236.55 618.042 236.708 618.777 237.024 619.275C237.347 619.773 237.868 620.022 238.589 620.022C239.304 620.022 239.816 619.776 240.127 619.284C240.443 618.786 240.602 618.048 240.602 617.069C240.602 616.097 240.443 615.367 240.127 614.881C239.811 614.395 239.292 614.151 238.571 614.151C237.856 614.151 237.341 614.395 237.024 614.881C236.708 615.361 236.55 616.091 236.55 617.069ZM243.344 617.069C243.344 618.669 242.922 619.92 242.078 620.822C241.234 621.725 240.06 622.176 238.554 622.176C237.61 622.176 236.778 621.971 236.058 621.561C235.337 621.145 234.783 620.55 234.396 619.776C234.01 619.003 233.816 618.101 233.816 617.069C233.816 615.464 234.235 614.216 235.073 613.325C235.911 612.435 237.089 611.989 238.606 611.989C239.55 611.989 240.382 612.194 241.103 612.604C241.823 613.015 242.377 613.604 242.764 614.371C243.15 615.139 243.344 616.038 243.344 617.069ZM252.52 622L252.159 620.743H252.019C251.731 621.2 251.324 621.555 250.797 621.807C250.27 622.053 249.669 622.176 248.995 622.176C247.841 622.176 246.971 621.868 246.385 621.253C245.799 620.632 245.506 619.741 245.506 618.581V612.174H248.187V617.913C248.187 618.622 248.312 619.155 248.564 619.513C248.816 619.864 249.218 620.04 249.769 620.04C250.519 620.04 251.061 619.791 251.395 619.293C251.729 618.789 251.896 617.957 251.896 616.797V612.174H254.576V622H252.52ZM266.459 622H263.778V616.261C263.778 615.552 263.652 615.021 263.4 614.67C263.148 614.312 262.747 614.134 262.196 614.134C261.446 614.134 260.904 614.386 260.57 614.89C260.236 615.388 260.069 616.217 260.069 617.377V622H257.389V612.174H259.437L259.797 613.431H259.946C260.245 612.956 260.655 612.599 261.177 612.358C261.704 612.112 262.302 611.989 262.97 611.989C264.112 611.989 264.979 612.3 265.571 612.921C266.163 613.536 266.459 614.427 266.459 615.593V622ZM273.358 620.04C273.827 620.04 274.39 619.938 275.046 619.732V621.728C274.378 622.026 273.558 622.176 272.585 622.176C271.513 622.176 270.73 621.906 270.238 621.367C269.752 620.822 269.509 620.008 269.509 618.924V614.187H268.226V613.053L269.702 612.156L270.476 610.082H272.189V612.174H274.94V614.187H272.189V618.924C272.189 619.305 272.295 619.586 272.506 619.768C272.723 619.949 273.007 620.04 273.358 620.04Z" fill="white"/>
<rect x="33" y="103" width="320" height="50" rx="12" fill="#E8E8E8"/>
<path d="M42.5498 186.907C42.5498 188.552 42.0804 189.812 41.1416 190.688C40.2074 191.562 38.8561 192 37.0879 192H34.2578V182.006H37.3955C39.027 182.006 40.2939 182.437 41.1963 183.298C42.0986 184.159 42.5498 185.362 42.5498 186.907ZM40.3486 186.962C40.3486 184.815 39.4007 183.742 37.5049 183.742H36.377V190.25H37.2861C39.3278 190.25 40.3486 189.154 40.3486 186.962ZM49.3105 192L48.9072 190.961H48.8525C48.5016 191.403 48.1393 191.711 47.7656 191.884C47.3965 192.052 46.9134 192.137 46.3164 192.137C45.5827 192.137 45.0039 191.927 44.5801 191.508C44.1608 191.089 43.9512 190.492 43.9512 189.717C43.9512 188.906 44.2337 188.309 44.7988 187.926C45.3685 187.538 46.2253 187.324 47.3691 187.283L48.6953 187.242V186.907C48.6953 186.132 48.2988 185.745 47.5059 185.745C46.8952 185.745 46.1774 185.93 45.3525 186.299L44.6621 184.891C45.5417 184.43 46.5169 184.2 47.5879 184.2C48.6133 184.2 49.3994 184.424 49.9463 184.87C50.4932 185.317 50.7666 185.996 50.7666 186.907V192H49.3105ZM48.6953 188.459L47.8887 188.486C47.2826 188.505 46.8314 188.614 46.5352 188.814C46.2389 189.015 46.0908 189.32 46.0908 189.73C46.0908 190.318 46.4281 190.612 47.1025 190.612C47.5856 190.612 47.9707 190.473 48.2578 190.195C48.5495 189.917 48.6953 189.548 48.6953 189.088V188.459ZM56.1396 190.476C56.5042 190.476 56.9417 190.396 57.4521 190.236V191.788C56.9326 192.021 56.2946 192.137 55.5381 192.137C54.7041 192.137 54.0957 191.927 53.7129 191.508C53.3346 191.084 53.1455 190.451 53.1455 189.607V185.923H52.1475V185.041L53.2959 184.344L53.8975 182.73H55.2305V184.357H57.3701V185.923H55.2305V189.607C55.2305 189.904 55.3125 190.122 55.4766 190.264C55.6452 190.405 55.8662 190.476 56.1396 190.476ZM62.1689 185.697C61.7269 185.697 61.3805 185.839 61.1299 186.121C60.8792 186.399 60.7357 186.796 60.6992 187.311H63.625C63.6159 186.796 63.4814 186.399 63.2217 186.121C62.9619 185.839 62.611 185.697 62.1689 185.697ZM62.4629 192.137C61.2324 192.137 60.2708 191.797 59.5781 191.118C58.8854 190.439 58.5391 189.478 58.5391 188.233C58.5391 186.953 58.8581 185.964 59.4961 185.267C60.1387 184.565 61.0251 184.214 62.1553 184.214C63.2354 184.214 64.0762 184.521 64.6777 185.137C65.2793 185.752 65.5801 186.602 65.5801 187.687V188.698H60.6514C60.6742 189.291 60.8496 189.753 61.1777 190.086C61.5059 190.419 61.9661 190.585 62.5586 190.585C63.0189 190.585 63.4541 190.537 63.8643 190.441C64.2744 190.346 64.7028 190.193 65.1494 189.983V191.597C64.7848 191.779 64.3952 191.913 63.9805 192C63.5658 192.091 63.0599 192.137 62.4629 192.137ZM72.5732 188.165C72.5732 188.922 72.6963 189.493 72.9424 189.881C73.193 190.268 73.5986 190.462 74.1592 190.462C74.7152 190.462 75.1139 190.271 75.3555 189.888C75.6016 189.5 75.7246 188.926 75.7246 188.165C75.7246 187.409 75.6016 186.841 75.3555 186.463C75.1094 186.085 74.7061 185.896 74.1455 185.896C73.5895 185.896 73.1885 186.085 72.9424 186.463C72.6963 186.837 72.5732 187.404 72.5732 188.165ZM77.8574 188.165C77.8574 189.409 77.5293 190.382 76.873 191.084C76.2168 191.786 75.3031 192.137 74.1318 192.137C73.3981 192.137 72.751 191.977 72.1904 191.658C71.6299 191.335 71.1992 190.872 70.8984 190.271C70.5977 189.669 70.4473 188.967 70.4473 188.165C70.4473 186.916 70.7731 185.946 71.4248 185.253C72.0765 184.56 72.9925 184.214 74.1729 184.214C74.9066 184.214 75.5537 184.373 76.1143 184.692C76.6748 185.011 77.1055 185.469 77.4062 186.066C77.707 186.663 77.8574 187.363 77.8574 188.165ZM83.8047 185.923H82V192H79.915V185.923H78.7666V184.918L79.915 184.357V183.797C79.915 182.926 80.1292 182.291 80.5576 181.89C80.986 181.489 81.6719 181.288 82.6152 181.288C83.3353 181.288 83.9756 181.395 84.5361 181.609L84.0029 183.141C83.5837 183.008 83.1963 182.942 82.8408 182.942C82.5446 182.942 82.3304 183.031 82.1982 183.209C82.0661 183.382 82 183.605 82 183.879V184.357H83.8047V185.923ZM88.8086 192V182.006H90.9277V192H88.8086ZM100.334 192H98.249V187.536C98.249 186.985 98.151 186.572 97.9551 186.299C97.7591 186.021 97.4469 185.882 97.0186 185.882C96.4352 185.882 96.0137 186.078 95.7539 186.47C95.4941 186.857 95.3643 187.502 95.3643 188.404V192H93.2793V184.357H94.8721L95.1523 185.335H95.2686C95.501 184.966 95.82 184.688 96.2256 184.501C96.6357 184.31 97.1006 184.214 97.6201 184.214C98.5088 184.214 99.1833 184.455 99.6436 184.938C100.104 185.417 100.334 186.11 100.334 187.017V192ZM105.584 192.137C103.205 192.137 102.016 190.831 102.016 188.22C102.016 186.921 102.339 185.93 102.986 185.246C103.633 184.558 104.561 184.214 105.769 184.214C106.653 184.214 107.446 184.387 108.147 184.733L107.532 186.347C107.204 186.215 106.899 186.107 106.616 186.025C106.334 185.939 106.051 185.896 105.769 185.896C104.684 185.896 104.142 186.666 104.142 188.206C104.142 189.701 104.684 190.448 105.769 190.448C106.17 190.448 106.541 190.396 106.883 190.291C107.225 190.182 107.566 190.013 107.908 189.785V191.569C107.571 191.784 107.229 191.932 106.883 192.014C106.541 192.096 106.108 192.137 105.584 192.137ZM111.347 188.165C111.347 188.922 111.47 189.493 111.716 189.881C111.966 190.268 112.372 190.462 112.933 190.462C113.489 190.462 113.887 190.271 114.129 189.888C114.375 189.5 114.498 188.926 114.498 188.165C114.498 187.409 114.375 186.841 114.129 186.463C113.883 186.085 113.479 185.896 112.919 185.896C112.363 185.896 111.962 186.085 111.716 186.463C111.47 186.837 111.347 187.404 111.347 188.165ZM116.631 188.165C116.631 189.409 116.303 190.382 115.646 191.084C114.99 191.786 114.076 192.137 112.905 192.137C112.172 192.137 111.524 191.977 110.964 191.658C110.403 191.335 109.973 190.872 109.672 190.271C109.371 189.669 109.221 188.967 109.221 188.165C109.221 186.916 109.547 185.946 110.198 185.253C110.85 184.56 111.766 184.214 112.946 184.214C113.68 184.214 114.327 184.373 114.888 184.692C115.448 185.011 115.879 185.469 116.18 186.066C116.48 186.663 116.631 187.363 116.631 188.165ZM122.619 184.214C122.902 184.214 123.136 184.234 123.323 184.275L123.166 186.23C122.997 186.185 122.792 186.162 122.551 186.162C121.885 186.162 121.366 186.333 120.992 186.675C120.623 187.017 120.438 187.495 120.438 188.11V192H118.354V184.357H119.933L120.24 185.643H120.343C120.58 185.214 120.899 184.87 121.3 184.61C121.705 184.346 122.145 184.214 122.619 184.214ZM128.908 192.137C128.01 192.137 127.306 191.811 126.796 191.159H126.687C126.759 191.797 126.796 192.166 126.796 192.267V195.363H124.711V184.357H126.406L126.7 185.349H126.796C127.284 184.592 128.006 184.214 128.963 184.214C129.865 184.214 130.572 184.562 131.082 185.26C131.592 185.957 131.848 186.925 131.848 188.165C131.848 188.981 131.727 189.689 131.485 190.291C131.248 190.893 130.909 191.351 130.467 191.665C130.025 191.979 129.505 192.137 128.908 192.137ZM128.293 185.882C127.778 185.882 127.402 186.041 127.165 186.36C126.928 186.675 126.805 187.197 126.796 187.926V188.151C126.796 188.972 126.917 189.56 127.158 189.915C127.404 190.271 127.792 190.448 128.32 190.448C129.255 190.448 129.722 189.678 129.722 188.138C129.722 187.386 129.605 186.823 129.373 186.449C129.145 186.071 128.785 185.882 128.293 185.882ZM135.231 188.165C135.231 188.922 135.354 189.493 135.601 189.881C135.851 190.268 136.257 190.462 136.817 190.462C137.373 190.462 137.772 190.271 138.014 189.888C138.26 189.5 138.383 188.926 138.383 188.165C138.383 187.409 138.26 186.841 138.014 186.463C137.768 186.085 137.364 185.896 136.804 185.896C136.248 185.896 135.847 186.085 135.601 186.463C135.354 186.837 135.231 187.404 135.231 188.165ZM140.516 188.165C140.516 189.409 140.188 190.382 139.531 191.084C138.875 191.786 137.961 192.137 136.79 192.137C136.056 192.137 135.409 191.977 134.849 191.658C134.288 191.335 133.857 190.872 133.557 190.271C133.256 189.669 133.105 188.967 133.105 188.165C133.105 186.916 133.431 185.946 134.083 185.253C134.735 184.56 135.651 184.214 136.831 184.214C137.565 184.214 138.212 184.373 138.772 184.692C139.333 185.011 139.764 185.469 140.064 186.066C140.365 186.663 140.516 187.363 140.516 188.165ZM146.504 184.214C146.786 184.214 147.021 184.234 147.208 184.275L147.051 186.23C146.882 186.185 146.677 186.162 146.436 186.162C145.77 186.162 145.251 186.333 144.877 186.675C144.508 187.017 144.323 187.495 144.323 188.11V192H142.238V184.357H143.817L144.125 185.643H144.228C144.465 185.214 144.784 184.87 145.185 184.61C145.59 184.346 146.03 184.214 146.504 184.214ZM153.449 192L153.046 190.961H152.991C152.64 191.403 152.278 191.711 151.904 191.884C151.535 192.052 151.052 192.137 150.455 192.137C149.721 192.137 149.143 191.927 148.719 191.508C148.299 191.089 148.09 190.492 148.09 189.717C148.09 188.906 148.372 188.309 148.938 187.926C149.507 187.538 150.364 187.324 151.508 187.283L152.834 187.242V186.907C152.834 186.132 152.438 185.745 151.645 185.745C151.034 185.745 150.316 185.93 149.491 186.299L148.801 184.891C149.68 184.43 150.656 184.2 151.727 184.2C152.752 184.2 153.538 184.424 154.085 184.87C154.632 185.317 154.905 185.996 154.905 186.907V192H153.449ZM152.834 188.459L152.027 188.486C151.421 188.505 150.97 188.614 150.674 188.814C150.378 189.015 150.229 189.32 150.229 189.73C150.229 190.318 150.567 190.612 151.241 190.612C151.724 190.612 152.109 190.473 152.396 190.195C152.688 189.917 152.834 189.548 152.834 189.088V188.459ZM160.278 190.476C160.643 190.476 161.08 190.396 161.591 190.236V191.788C161.071 192.021 160.433 192.137 159.677 192.137C158.843 192.137 158.234 191.927 157.852 191.508C157.473 191.084 157.284 190.451 157.284 189.607V185.923H156.286V185.041L157.435 184.344L158.036 182.73H159.369V184.357H161.509V185.923H159.369V189.607C159.369 189.904 159.451 190.122 159.615 190.264C159.784 190.405 160.005 190.476 160.278 190.476ZM163.054 182.382C163.054 181.703 163.432 181.363 164.188 181.363C164.945 181.363 165.323 181.703 165.323 182.382C165.323 182.705 165.228 182.958 165.036 183.141C164.849 183.318 164.567 183.407 164.188 183.407C163.432 183.407 163.054 183.065 163.054 182.382ZM165.228 192H163.143V184.357H165.228V192ZM169.083 188.165C169.083 188.922 169.206 189.493 169.452 189.881C169.703 190.268 170.108 190.462 170.669 190.462C171.225 190.462 171.624 190.271 171.865 189.888C172.111 189.5 172.234 188.926 172.234 188.165C172.234 187.409 172.111 186.841 171.865 186.463C171.619 186.085 171.216 185.896 170.655 185.896C170.099 185.896 169.698 186.085 169.452 186.463C169.206 186.837 169.083 187.404 169.083 188.165ZM174.367 188.165C174.367 189.409 174.039 190.382 173.383 191.084C172.727 191.786 171.813 192.137 170.642 192.137C169.908 192.137 169.261 191.977 168.7 191.658C168.14 191.335 167.709 190.872 167.408 190.271C167.107 189.669 166.957 188.967 166.957 188.165C166.957 186.916 167.283 185.946 167.935 185.253C168.586 184.56 169.502 184.214 170.683 184.214C171.416 184.214 172.063 184.373 172.624 184.692C173.185 185.011 173.615 185.469 173.916 186.066C174.217 186.663 174.367 187.363 174.367 188.165ZM183.145 192H181.06V187.536C181.06 186.985 180.962 186.572 180.766 186.299C180.57 186.021 180.257 185.882 179.829 185.882C179.246 185.882 178.824 186.078 178.564 186.47C178.305 186.857 178.175 187.502 178.175 188.404V192H176.09V184.357H177.683L177.963 185.335H178.079C178.312 184.966 178.631 184.688 179.036 184.501C179.446 184.31 179.911 184.214 180.431 184.214C181.319 184.214 181.994 184.455 182.454 184.938C182.914 185.417 183.145 186.11 183.145 187.017V192Z" fill="#1A1A1A"/>
<rect x="33" y="204" width="320" height="50" rx="12" fill="#E8E8E8"/>
<path d="M326 228H324V230H326V228ZM330 228H328V230H330V228ZM334 228H332V230H334V228ZM336 221H335V219H333V221H325V219H323V221H322C320.89 221 320.01 221.9 320.01 223L320 237C320 238.1 320.89 239 322 239H336C337.1 239 338 238.1 338 237V223C338 221.9 337.1 221 336 221ZM336 237H322V226H336V237Z" fill="black"/>
<path d="M40.0137 293H34.2578V283.006H40.0137V284.742H36.377V286.937H39.7607V288.673H36.377V291.25H40.0137V293ZM48.7842 293H46.6992V288.536C46.6992 287.985 46.6058 287.572 46.4189 287.299C46.2367 287.021 45.9473 286.882 45.5508 286.882C45.0176 286.882 44.6302 287.078 44.3887 287.47C44.1471 287.862 44.0264 288.507 44.0264 289.404V293H41.9414V285.357H43.5342L43.8145 286.335H43.9307C44.1357 285.984 44.432 285.711 44.8193 285.515C45.2067 285.314 45.651 285.214 46.1523 285.214C47.2962 285.214 48.071 285.588 48.4766 286.335H48.6611C48.8662 285.979 49.167 285.704 49.5635 285.508C49.9645 285.312 50.4157 285.214 50.917 285.214C51.7829 285.214 52.4368 285.437 52.8789 285.884C53.3255 286.326 53.5488 287.037 53.5488 288.017V293H51.457V288.536C51.457 287.985 51.3636 287.572 51.1768 287.299C50.9945 287.021 50.7051 286.882 50.3086 286.882C49.7982 286.882 49.4154 287.064 49.1602 287.429C48.9095 287.793 48.7842 288.372 48.7842 289.165V293ZM60.5488 293L60.1455 291.961H60.0908C59.7399 292.403 59.3776 292.711 59.0039 292.884C58.6348 293.052 58.1517 293.137 57.5547 293.137C56.821 293.137 56.2422 292.927 55.8184 292.508C55.3991 292.089 55.1895 291.492 55.1895 290.717C55.1895 289.906 55.472 289.309 56.0371 288.926C56.6068 288.538 57.4635 288.324 58.6074 288.283L59.9336 288.242V287.907C59.9336 287.132 59.5371 286.745 58.7441 286.745C58.1335 286.745 57.4157 286.93 56.5908 287.299L55.9004 285.891C56.7799 285.43 57.7552 285.2 58.8262 285.2C59.8516 285.2 60.6377 285.424 61.1846 285.87C61.7314 286.317 62.0049 286.996 62.0049 287.907V293H60.5488ZM59.9336 289.459L59.127 289.486C58.5208 289.505 58.0697 289.614 57.7734 289.814C57.4772 290.015 57.3291 290.32 57.3291 290.73C57.3291 291.318 57.6663 291.612 58.3408 291.612C58.8239 291.612 59.209 291.473 59.4961 291.195C59.7878 290.917 59.9336 290.548 59.9336 290.088V289.459ZM64.0693 283.382C64.0693 282.703 64.4476 282.363 65.2041 282.363C65.9606 282.363 66.3389 282.703 66.3389 283.382C66.3389 283.705 66.2432 283.958 66.0518 284.141C65.8649 284.318 65.5824 284.407 65.2041 284.407C64.4476 284.407 64.0693 284.065 64.0693 283.382ZM66.2432 293H64.1582V285.357H66.2432V293ZM70.5225 293H68.4375V282.363H70.5225V293Z" fill="#1A1A1A"/>
<rect x="33" y="305" width="320" height="50" rx="12" fill="#E8E8E8"/>
<path d="M36.377 388.709H37.0742C37.7259 388.709 38.2135 388.581 38.5371 388.326C38.8607 388.066 39.0225 387.69 39.0225 387.198C39.0225 386.701 38.8857 386.335 38.6123 386.098C38.3434 385.861 37.9196 385.742 37.3408 385.742H36.377V388.709ZM41.1621 387.123C41.1621 388.199 40.8249 389.021 40.1504 389.591C39.4805 390.16 38.5257 390.445 37.2861 390.445H36.377V394H34.2578V384.006H37.4502C38.6624 384.006 39.583 384.268 40.2119 384.792C40.8454 385.312 41.1621 386.089 41.1621 387.123ZM47.7383 394L47.335 392.961H47.2803C46.9294 393.403 46.5671 393.711 46.1934 393.884C45.8242 394.052 45.3411 394.137 44.7441 394.137C44.0104 394.137 43.4316 393.927 43.0078 393.508C42.5885 393.089 42.3789 392.492 42.3789 391.717C42.3789 390.906 42.6615 390.309 43.2266 389.926C43.7962 389.538 44.653 389.324 45.7969 389.283L47.123 389.242V388.907C47.123 388.132 46.7266 387.745 45.9336 387.745C45.3229 387.745 44.6051 387.93 43.7803 388.299L43.0898 386.891C43.9694 386.43 44.9447 386.2 46.0156 386.2C47.041 386.2 47.8271 386.424 48.374 386.87C48.9209 387.317 49.1943 387.996 49.1943 388.907V394H47.7383ZM47.123 390.459L46.3164 390.486C45.7103 390.505 45.2591 390.614 44.9629 390.814C44.6667 391.015 44.5186 391.32 44.5186 391.73C44.5186 392.318 44.8558 392.612 45.5303 392.612C46.0133 392.612 46.3984 392.473 46.6855 392.195C46.9772 391.917 47.123 391.548 47.123 391.088V390.459ZM56.6797 391.73C56.6797 392.514 56.4062 393.111 55.8594 393.521C55.3171 393.932 54.5036 394.137 53.4189 394.137C52.863 394.137 52.389 394.098 51.9971 394.021C51.6051 393.948 51.2383 393.838 50.8965 393.692V391.97C51.2839 392.152 51.7191 392.305 52.2021 392.428C52.6898 392.551 53.1182 392.612 53.4873 392.612C54.2438 392.612 54.6221 392.394 54.6221 391.956C54.6221 391.792 54.5719 391.66 54.4717 391.56C54.3714 391.455 54.1982 391.339 53.9521 391.211C53.7061 391.079 53.3779 390.926 52.9678 390.753C52.3799 390.507 51.9469 390.279 51.6689 390.069C51.3955 389.86 51.195 389.62 51.0674 389.352C50.9443 389.078 50.8828 388.743 50.8828 388.347C50.8828 387.668 51.1449 387.144 51.6689 386.774C52.1976 386.401 52.945 386.214 53.9111 386.214C54.8317 386.214 55.7272 386.414 56.5977 386.815L55.9688 388.319C55.5859 388.155 55.2282 388.021 54.8955 387.916C54.5628 387.811 54.2233 387.759 53.877 387.759C53.2617 387.759 52.9541 387.925 52.9541 388.258C52.9541 388.445 53.0521 388.606 53.248 388.743C53.4486 388.88 53.8838 389.083 54.5537 389.352C55.1507 389.593 55.5882 389.819 55.8662 390.028C56.1442 390.238 56.3493 390.479 56.4814 390.753C56.6136 391.026 56.6797 391.352 56.6797 391.73ZM63.6387 391.73C63.6387 392.514 63.3652 393.111 62.8184 393.521C62.276 393.932 61.4626 394.137 60.3779 394.137C59.8219 394.137 59.348 394.098 58.9561 394.021C58.5641 393.948 58.1973 393.838 57.8555 393.692V391.97C58.2428 392.152 58.6781 392.305 59.1611 392.428C59.6488 392.551 60.0771 392.612 60.4463 392.612C61.2028 392.612 61.5811 392.394 61.5811 391.956C61.5811 391.792 61.5309 391.66 61.4307 391.56C61.3304 391.455 61.1572 391.339 60.9111 391.211C60.665 391.079 60.3369 390.926 59.9268 390.753C59.3389 390.507 58.9059 390.279 58.6279 390.069C58.3545 389.86 58.154 389.62 58.0264 389.352C57.9033 389.078 57.8418 388.743 57.8418 388.347C57.8418 387.668 58.1038 387.144 58.6279 386.774C59.1566 386.401 59.904 386.214 60.8701 386.214C61.7907 386.214 62.6862 386.414 63.5566 386.815L62.9277 388.319C62.5449 388.155 62.1872 388.021 61.8545 387.916C61.5218 387.811 61.1823 387.759 60.8359 387.759C60.2207 387.759 59.9131 387.925 59.9131 388.258C59.9131 388.445 60.0111 388.606 60.207 388.743C60.4076 388.88 60.8428 389.083 61.5127 389.352C62.1097 389.593 62.5472 389.819 62.8252 390.028C63.1032 390.238 63.3083 390.479 63.4404 390.753C63.5726 391.026 63.6387 391.352 63.6387 391.73ZM71.5479 394L70.96 391.327L70.167 387.95H70.1191L68.7246 394H66.4824L64.3086 386.357H66.3867L67.2686 389.741C67.4098 390.347 67.5534 391.184 67.6992 392.25H67.7402C67.7585 391.904 67.8382 391.354 67.9795 390.603L68.0889 390.021L69.0322 386.357H71.3291L72.2246 390.021C72.2428 390.122 72.2702 390.27 72.3066 390.466C72.3477 390.662 72.3864 390.871 72.4229 391.095C72.4593 391.313 72.4912 391.53 72.5186 391.744C72.5505 391.954 72.5687 392.122 72.5732 392.25H72.6143C72.6553 391.922 72.7282 391.473 72.833 390.903C72.9378 390.329 73.013 389.942 73.0586 389.741L73.9746 386.357H76.0186L73.8174 394H71.5479ZM78.917 390.165C78.917 390.922 79.04 391.493 79.2861 391.881C79.5368 392.268 79.9424 392.462 80.5029 392.462C81.0589 392.462 81.4577 392.271 81.6992 391.888C81.9453 391.5 82.0684 390.926 82.0684 390.165C82.0684 389.409 81.9453 388.841 81.6992 388.463C81.4531 388.085 81.0498 387.896 80.4893 387.896C79.9333 387.896 79.5322 388.085 79.2861 388.463C79.04 388.837 78.917 389.404 78.917 390.165ZM84.2012 390.165C84.2012 391.409 83.873 392.382 83.2168 393.084C82.5605 393.786 81.6468 394.137 80.4756 394.137C79.7419 394.137 79.0947 393.977 78.5342 393.658C77.9736 393.335 77.543 392.872 77.2422 392.271C76.9414 391.669 76.791 390.967 76.791 390.165C76.791 388.916 77.1169 387.946 77.7686 387.253C78.4202 386.56 79.3363 386.214 80.5166 386.214C81.2503 386.214 81.8975 386.373 82.458 386.692C83.0186 387.011 83.4492 387.469 83.75 388.066C84.0508 388.663 84.2012 389.363 84.2012 390.165ZM90.1895 386.214C90.472 386.214 90.7067 386.234 90.8936 386.275L90.7363 388.23C90.5677 388.185 90.3626 388.162 90.1211 388.162C89.4557 388.162 88.9362 388.333 88.5625 388.675C88.1934 389.017 88.0088 389.495 88.0088 390.11V394H85.9238V386.357H87.5029L87.8105 387.643H87.9131C88.1501 387.214 88.4691 386.87 88.8701 386.61C89.2757 386.346 89.7155 386.214 90.1895 386.214ZM94.7012 394.137C93.8034 394.137 93.097 393.788 92.582 393.091C92.0716 392.394 91.8164 391.427 91.8164 390.192C91.8164 388.939 92.0762 387.964 92.5957 387.267C93.1198 386.565 93.8398 386.214 94.7559 386.214C95.7174 386.214 96.4512 386.588 96.957 387.335H97.0254C96.9206 386.765 96.8682 386.257 96.8682 385.811V383.363H98.96V394H97.3604L96.957 393.009H96.8682C96.3942 393.761 95.6719 394.137 94.7012 394.137ZM95.4326 392.476C95.9658 392.476 96.3555 392.321 96.6016 392.011C96.8522 391.701 96.9889 391.174 97.0117 390.432V390.206C97.0117 389.386 96.8841 388.798 96.6289 388.442C96.3783 388.087 95.9681 387.909 95.3984 387.909C94.9336 387.909 94.5713 388.107 94.3115 388.504C94.0563 388.896 93.9287 389.468 93.9287 390.22C93.9287 390.972 94.0586 391.537 94.3184 391.915C94.5781 392.289 94.9495 392.476 95.4326 392.476Z" fill="#1A1A1A"/>
<rect x="33" y="406" width="320" height="50" rx="12" fill="#E8E8E8"/>
<path d="M329 426C331.76 426 334 428.24 334 431C334 431.65 333.87 432.26 333.64 432.83L336.56 435.75C338.07 434.49 339.26 432.86 339.99 431C338.26 426.61 333.99 423.5 328.99 423.5C327.59 423.5 326.25 423.75 325.01 424.2L327.17 426.36C327.74 426.13 328.35 426 329 426ZM319 423.27L321.28 425.55L321.74 426.01C320.08 427.3 318.78 429.02 318 431C319.73 435.39 324 438.5 329 438.5C330.55 438.5 332.03 438.2 333.38 437.66L333.8 438.08L336.73 441L338 439.73L320.27 422L319 423.27ZM324.53 428.8L326.08 430.35C326.03 430.56 326 430.78 326 431C326 432.66 327.34 434 329 434C329.22 434 329.44 433.97 329.65 433.92L331.2 435.47C330.53 435.8 329.79 436 329 436C326.24 436 324 433.76 324 431C324 430.21 324.2 429.47 324.53 428.8ZM328.84 428.02L331.99 431.17L332.01 431.01C332.01 429.35 330.67 428.01 329.01 428.01L328.84 428.02Z" fill="black"/>
<path d="M38.5029 486.626C37.7054 486.626 37.0879 486.927 36.6504 487.528C36.2129 488.125 35.9941 488.959 35.9941 490.03C35.9941 492.259 36.8304 493.373 38.5029 493.373C39.2048 493.373 40.0547 493.198 41.0527 492.847V494.624C40.2324 494.966 39.3164 495.137 38.3047 495.137C36.8509 495.137 35.7389 494.697 34.9688 493.817C34.1986 492.933 33.8135 491.666 33.8135 490.017C33.8135 488.978 34.0026 488.068 34.3809 487.289C34.7591 486.505 35.3014 485.906 36.0078 485.491C36.7188 485.072 37.5505 484.862 38.5029 484.862C39.4736 484.862 40.4489 485.097 41.4287 485.566L40.7451 487.289C40.3714 487.111 39.9954 486.956 39.6172 486.824C39.2389 486.692 38.8675 486.626 38.5029 486.626ZM44.6826 491.165C44.6826 491.922 44.8057 492.493 45.0518 492.881C45.3024 493.268 45.708 493.462 46.2686 493.462C46.8245 493.462 47.2233 493.271 47.4648 492.888C47.7109 492.5 47.834 491.926 47.834 491.165C47.834 490.409 47.7109 489.841 47.4648 489.463C47.2188 489.085 46.8154 488.896 46.2549 488.896C45.6989 488.896 45.2979 489.085 45.0518 489.463C44.8057 489.837 44.6826 490.404 44.6826 491.165ZM49.9668 491.165C49.9668 492.409 49.6387 493.382 48.9824 494.084C48.3262 494.786 47.4124 495.137 46.2412 495.137C45.5075 495.137 44.8604 494.977 44.2998 494.658C43.7393 494.335 43.3086 493.872 43.0078 493.271C42.707 492.669 42.5566 491.967 42.5566 491.165C42.5566 489.916 42.8825 488.946 43.5342 488.253C44.1859 487.56 45.1019 487.214 46.2822 487.214C47.016 487.214 47.6631 487.373 48.2236 487.692C48.7842 488.011 49.2148 488.469 49.5156 489.066C49.8164 489.663 49.9668 490.363 49.9668 491.165ZM58.7441 495H56.6592V490.536C56.6592 489.985 56.5612 489.572 56.3652 489.299C56.1693 489.021 55.8571 488.882 55.4287 488.882C54.8454 488.882 54.4238 489.078 54.1641 489.47C53.9043 489.857 53.7744 490.502 53.7744 491.404V495H51.6895V487.357H53.2822L53.5625 488.335H53.6787C53.9111 487.966 54.2301 487.688 54.6357 487.501C55.0459 487.31 55.5107 487.214 56.0303 487.214C56.9189 487.214 57.5934 487.455 58.0537 487.938C58.514 488.417 58.7441 489.11 58.7441 490.017V495ZM65.1152 488.923H63.3105V495H61.2256V488.923H60.0771V487.918L61.2256 487.357V486.797C61.2256 485.926 61.4398 485.291 61.8682 484.89C62.2965 484.489 62.9824 484.288 63.9258 484.288C64.6458 484.288 65.2861 484.395 65.8467 484.609L65.3135 486.141C64.8942 486.008 64.5068 485.942 64.1514 485.942C63.8551 485.942 63.641 486.031 63.5088 486.209C63.3766 486.382 63.3105 486.605 63.3105 486.879V487.357H65.1152V488.923ZM66.2227 485.382C66.2227 484.703 66.6009 484.363 67.3574 484.363C68.1139 484.363 68.4922 484.703 68.4922 485.382C68.4922 485.705 68.3965 485.958 68.2051 486.141C68.0182 486.318 67.7357 486.407 67.3574 486.407C66.6009 486.407 66.2227 486.065 66.2227 485.382ZM68.3965 495H66.3115V487.357H68.3965V495ZM74.8496 487.214C75.1322 487.214 75.3669 487.234 75.5537 487.275L75.3965 489.23C75.2279 489.185 75.0228 489.162 74.7812 489.162C74.1159 489.162 73.5964 489.333 73.2227 489.675C72.8535 490.017 72.6689 490.495 72.6689 491.11V495H70.584V487.357H72.1631L72.4707 488.643H72.5732C72.8102 488.214 73.1292 487.87 73.5303 487.61C73.9359 487.346 74.3757 487.214 74.8496 487.214ZM83.7842 495H81.6992V490.536C81.6992 489.985 81.6058 489.572 81.4189 489.299C81.2367 489.021 80.9473 488.882 80.5508 488.882C80.0176 488.882 79.6302 489.078 79.3887 489.47C79.1471 489.862 79.0264 490.507 79.0264 491.404V495H76.9414V487.357H78.5342L78.8145 488.335H78.9307C79.1357 487.984 79.432 487.711 79.8193 487.515C80.2067 487.314 80.651 487.214 81.1523 487.214C82.2962 487.214 83.071 487.588 83.4766 488.335H83.6611C83.8662 487.979 84.167 487.704 84.5635 487.508C84.9645 487.312 85.4157 487.214 85.917 487.214C86.7829 487.214 87.4368 487.437 87.8789 487.884C88.3255 488.326 88.5488 489.037 88.5488 490.017V495H86.457V490.536C86.457 489.985 86.3636 489.572 86.1768 489.299C85.9945 489.021 85.7051 488.882 85.3086 488.882C84.7982 488.882 84.4154 489.064 84.1602 489.429C83.9095 489.793 83.7842 490.372 83.7842 491.165V495ZM96.6152 489.709H97.3125C97.9642 489.709 98.4518 489.581 98.7754 489.326C99.099 489.066 99.2607 488.69 99.2607 488.198C99.2607 487.701 99.124 487.335 98.8506 487.098C98.5817 486.861 98.1579 486.742 97.5791 486.742H96.6152V489.709ZM101.4 488.123C101.4 489.199 101.063 490.021 100.389 490.591C99.7188 491.16 98.764 491.445 97.5244 491.445H96.6152V495H94.4961V485.006H97.6885C98.9007 485.006 99.8213 485.268 100.45 485.792C101.084 486.312 101.4 487.089 101.4 488.123ZM107.977 495L107.573 493.961H107.519C107.168 494.403 106.805 494.711 106.432 494.884C106.062 495.052 105.579 495.137 104.982 495.137C104.249 495.137 103.67 494.927 103.246 494.508C102.827 494.089 102.617 493.492 102.617 492.717C102.617 491.906 102.9 491.309 103.465 490.926C104.035 490.538 104.891 490.324 106.035 490.283L107.361 490.242V489.907C107.361 489.132 106.965 488.745 106.172 488.745C105.561 488.745 104.843 488.93 104.019 489.299L103.328 487.891C104.208 487.43 105.183 487.2 106.254 487.2C107.279 487.2 108.065 487.424 108.612 487.87C109.159 488.317 109.433 488.996 109.433 489.907V495H107.977ZM107.361 491.459L106.555 491.486C105.949 491.505 105.497 491.614 105.201 491.814C104.905 492.015 104.757 492.32 104.757 492.73C104.757 493.318 105.094 493.612 105.769 493.612C106.252 493.612 106.637 493.473 106.924 493.195C107.215 492.917 107.361 492.548 107.361 492.088V491.459ZM116.918 492.73C116.918 493.514 116.645 494.111 116.098 494.521C115.555 494.932 114.742 495.137 113.657 495.137C113.101 495.137 112.627 495.098 112.235 495.021C111.843 494.948 111.477 494.838 111.135 494.692V492.97C111.522 493.152 111.957 493.305 112.44 493.428C112.928 493.551 113.356 493.612 113.726 493.612C114.482 493.612 114.86 493.394 114.86 492.956C114.86 492.792 114.81 492.66 114.71 492.56C114.61 492.455 114.437 492.339 114.19 492.211C113.944 492.079 113.616 491.926 113.206 491.753C112.618 491.507 112.185 491.279 111.907 491.069C111.634 490.86 111.433 490.62 111.306 490.352C111.183 490.078 111.121 489.743 111.121 489.347C111.121 488.668 111.383 488.144 111.907 487.774C112.436 487.401 113.183 487.214 114.149 487.214C115.07 487.214 115.965 487.414 116.836 487.815L116.207 489.319C115.824 489.155 115.466 489.021 115.134 488.916C114.801 488.811 114.462 488.759 114.115 488.759C113.5 488.759 113.192 488.925 113.192 489.258C113.192 489.445 113.29 489.606 113.486 489.743C113.687 489.88 114.122 490.083 114.792 490.352C115.389 490.593 115.826 490.819 116.104 491.028C116.382 491.238 116.588 491.479 116.72 491.753C116.852 492.026 116.918 492.352 116.918 492.73ZM123.877 492.73C123.877 493.514 123.604 494.111 123.057 494.521C122.514 494.932 121.701 495.137 120.616 495.137C120.06 495.137 119.586 495.098 119.194 495.021C118.802 494.948 118.436 494.838 118.094 494.692V492.97C118.481 493.152 118.916 493.305 119.399 493.428C119.887 493.551 120.315 493.612 120.685 493.612C121.441 493.612 121.819 493.394 121.819 492.956C121.819 492.792 121.769 492.66 121.669 492.56C121.569 492.455 121.396 492.339 121.149 492.211C120.903 492.079 120.575 491.926 120.165 491.753C119.577 491.507 119.144 491.279 118.866 491.069C118.593 490.86 118.392 490.62 118.265 490.352C118.142 490.078 118.08 489.743 118.08 489.347C118.08 488.668 118.342 488.144 118.866 487.774C119.395 487.401 120.142 487.214 121.108 487.214C122.029 487.214 122.924 487.414 123.795 487.815L123.166 489.319C122.783 489.155 122.425 489.021 122.093 488.916C121.76 488.811 121.421 488.759 121.074 488.759C120.459 488.759 120.151 488.925 120.151 489.258C120.151 489.445 120.249 489.606 120.445 489.743C120.646 489.88 121.081 490.083 121.751 490.352C122.348 490.593 122.785 490.819 123.063 491.028C123.341 491.238 123.547 491.479 123.679 491.753C123.811 492.026 123.877 492.352 123.877 492.73ZM131.786 495L131.198 492.327L130.405 488.95H130.357L128.963 495H126.721L124.547 487.357H126.625L127.507 490.741C127.648 491.347 127.792 492.184 127.938 493.25H127.979C127.997 492.904 128.076 492.354 128.218 491.603L128.327 491.021L129.271 487.357H131.567L132.463 491.021C132.481 491.122 132.508 491.27 132.545 491.466C132.586 491.662 132.625 491.871 132.661 492.095C132.698 492.313 132.729 492.53 132.757 492.744C132.789 492.954 132.807 493.122 132.812 493.25H132.853C132.894 492.922 132.966 492.473 133.071 491.903C133.176 491.329 133.251 490.942 133.297 490.741L134.213 487.357H136.257L134.056 495H131.786ZM139.155 491.165C139.155 491.922 139.278 492.493 139.524 492.881C139.775 493.268 140.181 493.462 140.741 493.462C141.297 493.462 141.696 493.271 141.938 492.888C142.184 492.5 142.307 491.926 142.307 491.165C142.307 490.409 142.184 489.841 141.938 489.463C141.691 489.085 141.288 488.896 140.728 488.896C140.172 488.896 139.771 489.085 139.524 489.463C139.278 489.837 139.155 490.404 139.155 491.165ZM144.439 491.165C144.439 492.409 144.111 493.382 143.455 494.084C142.799 494.786 141.885 495.137 140.714 495.137C139.98 495.137 139.333 494.977 138.772 494.658C138.212 494.335 137.781 493.872 137.48 493.271C137.18 492.669 137.029 491.967 137.029 491.165C137.029 489.916 137.355 488.946 138.007 488.253C138.659 487.56 139.575 487.214 140.755 487.214C141.489 487.214 142.136 487.373 142.696 487.692C143.257 488.011 143.688 488.469 143.988 489.066C144.289 489.663 144.439 490.363 144.439 491.165ZM150.428 487.214C150.71 487.214 150.945 487.234 151.132 487.275L150.975 489.23C150.806 489.185 150.601 489.162 150.359 489.162C149.694 489.162 149.174 489.333 148.801 489.675C148.432 490.017 148.247 490.495 148.247 491.11V495H146.162V487.357H147.741L148.049 488.643H148.151C148.388 488.214 148.707 487.87 149.108 487.61C149.514 487.346 149.954 487.214 150.428 487.214ZM154.939 495.137C154.042 495.137 153.335 494.788 152.82 494.091C152.31 493.394 152.055 492.427 152.055 491.192C152.055 489.939 152.314 488.964 152.834 488.267C153.358 487.565 154.078 487.214 154.994 487.214C155.956 487.214 156.689 487.588 157.195 488.335H157.264C157.159 487.765 157.106 487.257 157.106 486.811V484.363H159.198V495H157.599L157.195 494.009H157.106C156.632 494.761 155.91 495.137 154.939 495.137ZM155.671 493.476C156.204 493.476 156.594 493.321 156.84 493.011C157.09 492.701 157.227 492.174 157.25 491.432V491.206C157.25 490.386 157.122 489.798 156.867 489.442C156.617 489.087 156.206 488.909 155.637 488.909C155.172 488.909 154.81 489.107 154.55 489.504C154.295 489.896 154.167 490.468 154.167 491.22C154.167 491.972 154.297 492.537 154.557 492.915C154.816 493.289 155.188 493.476 155.671 493.476Z" fill="#1A1A1A"/>
<rect x="33" y="507" width="320" height="50" rx="12" fill="#E8E8E8"/>
<path d="M329 527C331.76 527 334 529.24 334 532C334 532.65 333.87 533.26 333.64 533.83L336.56 536.75C338.07 535.49 339.26 533.86 339.99 532C338.26 527.61 333.99 524.5 328.99 524.5C327.59 524.5 326.25 524.75 325.01 525.2L327.17 527.36C327.74 527.13 328.35 527 329 527ZM319 524.27L321.28 526.55L321.74 527.01C320.08 528.3 318.78 530.02 318 532C319.73 536.39 324 539.5 329 539.5C330.55 539.5 332.03 539.2 333.38 538.66L333.8 539.08L336.73 542L338 540.73L320.27 523L319 524.27ZM324.53 529.8L326.08 531.35C326.03 531.56 326 531.78 326 532C326 533.66 327.34 535 329 535C329.22 535 329.44 534.97 329.65 534.92L331.2 536.47C330.53 536.8 329.79 537 329 537C326.24 537 324 534.76 324 532C324 531.21 324.2 530.47 324.53 529.8ZM328.84 529.02L331.99 532.17L332.01 532.01C332.01 530.35 330.67 529.01 329.01 529.01L328.84 529.02Z" fill="black"/>
<defs>
<filter id="filter0_d" x="0" y="562" width="386" height="116" filterUnits="userSpaceOnUse" color-interpolation-filters="sRGB">
<feFlood flood-opacity="0" result="BackgroundImageFix"/>
<feColorMatrix in="SourceAlpha" type="matrix" values="0 0 0 0 0 0 0 0 0 0 0 0 0 0 0 0 0 0 127 0" result="hardAlpha"/>
<feMorphology radius="5" operator="dilate" in="SourceAlpha" result="effect1_dropShadow"/>
<feOffset dy="6"/>
<feGaussianBlur stdDeviation="14"/>
<feColorMatrix type="matrix" values="0 0 0 0 0.996078 0 0 0 0 0.176471 0 0 0 0 0.0901961 0 0 0 0.3 0"/>
<feBlend mode="normal" in2="BackgroundImageFix" result="effect1_dropShadow"/>
<feBlend mode="normal" in="SourceGraphic" in2="effect1_dropShadow" result="shape"/>
</filter>
</defs>
</svg>
