<svg width="16" height="10" viewBox="0 0 16 10" fill="none" xmlns="http://www.w3.org/2000/svg">
<path d="M6.71094 2.91797C6.71094 3.92969 6.36458 4.70898 5.67188 5.25586C4.98372 5.79818 3.99707 6.06934 2.71191 6.06934H1.53613V10H0.374023V0.00585938H2.96484C5.46224 0.00585938 6.71094 0.976562 6.71094 2.91797ZM1.53613 5.07129H2.58203C3.61198 5.07129 4.3571 4.90495 4.81738 4.57227C5.27767 4.23958 5.50781 3.70638 5.50781 2.97266C5.50781 2.31185 5.29134 1.81966 4.8584 1.49609C4.42546 1.17253 3.75098 1.01074 2.83496 1.01074H1.53613V5.07129ZM11.8857 10H10.7236V1.03809H7.55859V0.00585938H15.0508V1.03809H11.8857V10Z" fill="white"/>
</svg>
