<svg width="60" height="60" viewBox="0 0 60 60" fill="none" xmlns="http://www.w3.org/2000/svg">
<path d="M57.5 20C57.5 22.75 55.25 25 52.5 25C52.05 25 51.625 24.95 51.225 24.825L42.325 33.7C42.45 34.1 42.5 34.55 42.5 35C42.5 37.75 40.25 40 37.5 40C34.75 40 32.5 37.75 32.5 35C32.5 34.55 32.55 34.1 32.675 33.7L26.3 27.325C25.9 27.45 25.45 27.5 25 27.5C24.55 27.5 24.1 27.45 23.7 27.325L12.325 38.725C12.45 39.125 12.5 39.55 12.5 40C12.5 42.75 10.25 45 7.5 45C4.75 45 2.5 42.75 2.5 40C2.5 37.25 4.75 35 7.5 35C7.95 35 8.375 35.05 8.775 35.175L20.175 23.8C20.05 23.4 20 22.95 20 22.5C20 19.75 22.25 17.5 25 17.5C27.75 17.5 30 19.75 30 22.5C30 22.95 29.95 23.4 29.825 23.8L36.2 30.175C36.6 30.05 37.05 30 37.5 30C37.95 30 38.4 30.05 38.8 30.175L47.675 21.275C47.55 20.875 47.5 20.45 47.5 20C47.5 17.25 49.75 15 52.5 15C55.25 15 57.5 17.25 57.5 20Z" fill="#D90429"/>
</svg>
